:SAMPLES-PER-SECOND 25
:FULLY-SPECIFIED
:DEGREES
125
root  -1.96486 66.2675 21.3346 -4.04247 -1.22482 2.13955
RightUpLeg  -21.2666 -1.92052 -2.83196
RightLeg  21.7804 -4.13818 -1.99709
RightFoot  -1.18402 -0.0890412 0.914441
RightToes  2.84633e-005 7.89722e-005 -0.000426369
Spine  2.8335 -1.79091 -0.0267078
Spine1  5.72715 -3.52488 1.16564
HEad  28.496 -1.35684 -7.40785
LeftShoulder1  -3.88251e-019 0 -3.92111e-022
LeftArm  -33.1387 -2.4093 -82.4875
LeftForeArm  29.7901 2.13832 -0.0983965
LeftHand  -0.846585 -4.63758 10.0763
RightShoulder  7.45443e-017 -2.42657e-020 1.96277e-018
RightArm  -28.4699 -18.3465 71.5265
RightForeArm  28.7964 6.32735 7.11862
RightHand  -1.11615 9.11692 -9.28105
LeftUpLeg  -0.823427 -1.74342 -8.52772
LeftLeg  12.2312 2.033 0.341811
LeftFoot  -8.21869 -0.212188 9.57863
LeftToes  3.91355e-005 3.11907e-005 -4.10385e-006
126
root  -2.05991 66.3476 22.0902 -3.59023 -0.208722 2.19491
RightUpLeg  -18.5538 -1.53303 -2.73542
RightLeg  9.02939 -5.48508 -1.5004
RightFoot  0.92836 -0.123723 1.20949
RightToes  2.84633e-005 7.89722e-005 -0.000426369
Spine  2.75326 -1.91327 0.549037
Spine1  5.50433 -3.81951 1.1014
HEad  28.1285 -1.9558 -7.2409
LeftShoulder1  -3.88251e-019 0 -3.92111e-022
LeftArm  -32.6269 -2.84554 -82.9135
LeftForeArm  30.0361 1.49753 -0.8217
LeftHand  -0.843562 -4.58092 10.0952
RightShoulder  7.45443e-017 -2.42657e-020 1.96277e-018
RightArm  -28.782 -19.7075 71.0685
RightForeArm  29.1953 5.89833 6.50252
RightHand  -1.11487 9.05639 -9.30702
LeftUpLeg  0.67626 -1.95624 -8.51793
LeftLeg  10.8714 1.25555 0.171278
LeftFoot  -8.32893 -0.202988 9.60682
LeftToes  3.91355e-005 3.11907e-005 -4.10385e-006
127
root  -2.18449 66.3201 22.9788 -3.5644 0.22883 2.42908
RightUpLeg  -16.322 -1.32114 -2.3943
RightLeg  3.47425 -4.72318 -1.68767
RightFoot  5.21148 -0.148675 1.27295
RightToes  2.84633e-005 7.89722e-005 -0.000426369
Spine  2.76789 -1.85191 0.820705
Spine1  5.4935 -3.71434 1.01117
HEad  27.8424 -2.39229 -7.32499
LeftShoulder1  -3.88251e-019 0 -3.92111e-022
LeftArm  -32.4958 -2.99349 -83.4643
LeftForeArm  30.8117 0.477826 -1.46463
LeftHand  -0.850755 -4.54105 10.217
RightShoulder  7.45443e-017 -2.42657e-020 1.96277e-018
RightArm  -29.023 -20.8022 70.6588
RightForeArm  29.4358 5.42133 5.80048
RightHand  -1.07767 9.0307 -9.02537
LeftUpLeg  2.2136 -1.9334 -8.62554
LeftLeg  10.8123 0.975129 0.135781
LeftFoot  -9.28972 -0.111285 9.33005
LeftToes  3.91355e-005 3.11907e-005 -4.10385e-006
128
root  -2.31776 66.2947 23.9907 -3.43654 -0.00901856 2.3863
RightUpLeg  -15.1722 -0.855061 -1.8411
RightLeg  3.80945 -3.63714 -2.06072
RightFoot  7.59817 -0.104947 0.939074
RightToes  2.84633e-005 7.89722e-005 -0.000426369
Spine  2.65173 -1.63842 0.928391
Spine1  5.25515 -3.27888 1.21407
HEad  27.9001 -2.51079 -7.59423
LeftShoulder1  -3.88251e-019 0 -3.92111e-022
LeftArm  -32.7149 -2.53541 -84.0448
LeftForeArm  31.661 0.31896 -1.74009
LeftHand  -0.841057 -4.48175 10.1613
RightShoulder  7.45443e-017 -2.42657e-020 1.96277e-018
RightArm  -29.2134 -21.4894 70.1967
RightForeArm  30.6106 4.73059 5.41796
RightHand  -1.02292 8.84998 -8.68999
LeftUpLeg  3.65693 -1.8336 -8.46541
LeftLeg  11.0412 1.24072 0.289311
LeftFoot  -10.3746 -0.0166689 9.39809
LeftToes  3.91355e-005 3.11907e-005 -4.10385e-006
129
root  -2.44899 66.3387 25.0226 -2.90176 -0.431626 1.66589
RightUpLeg  -14.3752 -0.284509 -0.88141
RightLeg  4.66346 -3.48914 -2.07145
RightFoot  6.17279 -0.0690213 0.722064
RightToes  2.84633e-005 7.89722e-005 -0.000426369
Spine  2.33776 -1.52791 1.27229
Spine1  4.61694 -3.05689 1.90535
HEad  28.214 -1.91544 -7.97351
LeftShoulder1  -3.88251e-019 0 -3.92111e-022
LeftArm  -33.2088 -1.17398 -84.6231
LeftForeArm  32.1073 0.918036 -1.74642
LeftHand  -0.800913 -4.38839 9.77891
RightShoulder  7.45443e-017 -2.42657e-020 1.96277e-018
RightArm  -29.1973 -21.9 69.7045
RightForeArm  32.004 4.37316 5.45028
RightHand  -1.00687 8.7802 -8.5995
LeftUpLeg  4.51913 -1.81807 -7.68217
LeftLeg  11.5577 1.61308 0.60049
LeftFoot  -11.0933 0.0472059 9.10289
LeftToes  3.91355e-005 3.11907e-005 -4.10385e-006
130
root  -2.60402 66.4239 25.9748 -2.03988 -0.4805 0.431827
RightUpLeg  -13.6571 0.385296 0.423066
RightLeg  4.48064 -4.46222 -1.9402
RightFoot  4.19032 -0.0619552 0.664776
RightToes  2.84633e-005 7.89722e-005 -0.000426369
Spine  1.95262 -1.6114 1.94928
Spine1  3.81197 -3.21873 2.99104
HEad  28.2064 -1.05121 -8.41063
LeftShoulder1  -3.88251e-019 0 -3.92111e-022
LeftArm  -33.6965 0.245963 -85.4306
LeftForeArm  33.0867 2.17363 -1.26564
LeftHand  -0.760253 -4.35788 9.32647
RightShoulder  7.45443e-017 -2.42657e-020 1.96277e-018
RightArm  -28.9638 -22.4397 69.1826
RightForeArm  31.7085 5.1542 5.98165
RightHand  -1.02271 8.84817 -8.68927
LeftUpLeg  4.29514 -1.6541 -6.14967
LeftLeg  13.2443 1.55957 0.763139
LeftFoot  -11.8961 0.110848 8.10755
LeftToes  3.91355e-005 3.11907e-005 -4.10385e-006
131
root  -2.80929 66.4749 26.8059 -1.37458 -0.0204373 -0.784894
RightUpLeg  -12.764 0.941859 1.73711
RightLeg  4.21001 -5.53062 -1.79003
RightFoot  3.35465 -0.0351309 0.450129
RightToes  2.84633e-005 7.89722e-005 -0.000426369
Spine  1.73871 -1.75536 2.73806
Spine1  3.33206 -3.47882 4.03041
HEad  27.6032 -0.900477 -8.54204
LeftShoulder1  -3.88251e-019 0 -3.92111e-022
LeftArm  -33.886 0.719026 -86.4852
LeftForeArm  35.457 2.04436 -0.267805
LeftHand  -0.703359 -4.4299 8.59262
RightShoulder  7.45443e-017 -2.42657e-020 1.96277e-018
RightArm  -28.5857 -23.073 68.6
RightForeArm  29.4629 6.84859 7.19243
RightHand  -1.03196 8.81845 -8.78121
LeftUpLeg  3.01431 -0.298534 -4.00707
LeftLeg  17.0099 -0.24273 0.235386
LeftFoot  -12.8735 0.17415 7.21769
LeftToes  3.91355e-005 3.11907e-005 -4.10385e-006
132
root  -3.04882 66.4333 27.5066 -1.27624 0.736561 -1.73931
RightUpLeg  -12.0356 1.29468 2.86634
RightLeg  5.15701 -6.50479 -1.78903
RightFoot  1.60655 -0.0223691 0.296051
RightToes  2.84633e-005 7.89722e-005 -0.000426369
Spine  1.83417 -1.88402 3.44522
Spine1  3.468 -3.67245 4.72491
HEad  26.6757 -1.51576 -8.09344
LeftShoulder1  -3.88251e-019 0 -3.92111e-022
LeftArm  -33.7948 0.400124 -87.3758
LeftForeArm  38.6893 1.8371 0.927148
LeftHand  -0.621867 -4.48745 7.59118
RightShoulder  7.45443e-017 -2.42657e-020 1.96277e-018
RightArm  -27.1499 -23.136 68.2081
RightForeArm  26.231 8.61613 8.44462
RightHand  -1.07759 8.96535 -9.06251
LeftUpLeg  0.658836 2.75523 -1.49705
LeftLeg  23.6518 -3.97089 -1.58843
LeftFoot  -12.979 0.151112 4.95041
LeftToes  3.91355e-005 3.11907e-005 -4.10385e-006
133
root  -3.26705 66.28 28.0852 -1.46182 1.5255 -2.6434
RightUpLeg  -11.9923 1.6466 3.97705
RightLeg  7.51946 -7.69413 -2.12017
RightFoot  -1.35583 -0.0622307 0.616153
RightToes  2.84633e-005 7.89722e-005 -0.000426369
Spine  2.11362 -1.96969 4.08973
Spine1  3.97996 -3.76223 5.24374
HEad  25.5283 -2.23756 -7.47247
LeftShoulder1  -3.88251e-019 0 -3.92111e-022
LeftArm  -33.666 0.108638 -87.7836
LeftForeArm  41.5841 1.70253 1.54896
LeftHand  -0.571239 -4.38287 7.06754
RightShoulder  7.45443e-017 -2.42657e-020 1.96277e-018
RightArm  -25.0399 -22.2837 68.2764
RightForeArm  23.8734 9.95813 9.0176
RightHand  -1.20316 9.56266 -9.68959
LeftUpLeg  -3.22846 6.0849 1.06139
LeftLeg  33.0152 -6.17457 -3.94901
LeftFoot  -12.4108 0.0697306 -0.738553
LeftToes  3.91355e-005 3.11907e-005 -4.10385e-006
134
root  -3.4118 66.0955 28.5894 -1.68592 2.02484 -3.63219
RightUpLeg  -11.9745 2.10796 5.19397
RightLeg  9.75062 -8.70447 -2.58759
RightFoot  -3.77134 -0.101961 1.15618
RightToes  2.84633e-005 7.89722e-005 -0.000426369
Spine  2.41516 -1.90175 4.71881
Spine1  4.55647 -3.56318 5.77522
HEad  24.2071 -2.90222 -7.13038
LeftShoulder1  -3.88251e-019 0 -3.92111e-022
LeftArm  -33.7102 0.297444 -87.7941
LeftForeArm  42.7583 1.67413 1.46378
LeftHand  -0.578225 -4.18644 7.28496
RightShoulder  7.45443e-017 -2.42657e-020 1.96277e-018
RightArm  -23.2717 -20.8484 68.6808
RightForeArm  22.9417 10.7768 9.22409
RightHand  -1.31528 10.1384 -10.1847
LeftUpLeg  -7.92243 8.17916 3.30593
LeftLeg  42.304 -4.87684 -4.31854
LeftFoot  -13.4299 -0.042043 -6.23766
LeftToes  3.91355e-005 3.11907e-005 -4.10385e-006
